<?xml version="1.0" encoding="UTF-8" standalone="no"?>
<!-- Created with Inkscape (http://www.inkscape.org/) -->

<svg
   width="48.471352mm"
   height="11.42943mm"
   viewBox="0 0 48.471352 11.42943"
   version="1.1"
   id="svg1"
   inkscape:version="1.3.2 (091e20e, 2023-11-25)"
   sodipodi:docname="logo-dark.svg"
   xmlns:inkscape="http://www.inkscape.org/namespaces/inkscape"
   xmlns:sodipodi="http://sodipodi.sourceforge.net/DTD/sodipodi-0.dtd"
   xmlns="http://www.w3.org/2000/svg"
   xmlns:svg="http://www.w3.org/2000/svg">
  <sodipodi:namedview
     id="namedview1"
     pagecolor="#ffffff"
     bordercolor="#cccccc"
     borderopacity="1"
     inkscape:showpageshadow="0"
     inkscape:pageopacity="1"
     inkscape:pagecheckerboard="0"
     inkscape:deskcolor="#d1d1d1"
     inkscape:document-units="mm"
     inkscape:zoom="1.2210392"
     inkscape:cx="127.76003"
     inkscape:cy="29.483083"
     inkscape:window-width="1312"
     inkscape:window-height="449"
     inkscape:window-x="0"
     inkscape:window-y="25"
     inkscape:window-maximized="0"
     inkscape:current-layer="layer1" />
  <defs
     id="defs1" />
  <g
     inkscape:label="Layer 1"
     inkscape:groupmode="layer"
     id="layer1"
     transform="translate(-61.20286,-132.23073)">
    <path
       style="font-weight:bold;font-size:15.5222px;line-height:1.1;font-family:Helvetica;-inkscape-font-specification:'Helvetica Bold';letter-spacing:0.264583px;fill:#f2f2f2;stroke-width:10.3187;stroke-linecap:round;stroke-linejoin:round"
       d="m 71.063398,143.40247 h -3.001363 l -3.448536,-4.88101 -1.114142,1.14446 v 3.73655 H 61.20286 v -11.17174 h 2.296497 v 4.60057 l 4.312564,-4.60057 h 3.016522 l -4.577837,4.60057 z m 1.71221,-7.36699 q 0.856449,-1.0914 2.940729,-1.0914 1.356677,0 2.410185,0.53812 1.053509,0.53813 1.053509,2.03123 v 3.7896 q 0,0.39412 0.01516,0.95498 0.02274,0.42443 0.128847,0.57602 0.106109,0.15158 0.318326,0.25011 v 0.31833 H 77.29281 q -0.09853,-0.25012 -0.136425,-0.46991 -0.0379,-0.2198 -0.06063,-0.50023 -0.447172,0.48507 -1.030771,0.82613 -0.697286,0.4017 -1.576473,0.4017 -1.121722,0 -1.856904,-0.63665 Q 71.904,142.37927 71.904,141.2045 q 0,-1.52342 1.174776,-2.20555 0.644232,-0.37138 1.8948,-0.53054 l 0.735182,-0.0909 q 0.598757,-0.0758 0.856449,-0.18948 0.462331,-0.19706 0.462331,-0.61392 0,-0.5078 -0.356222,-0.69728 -0.348643,-0.19706 -1.030771,-0.19706 -0.765499,0 -1.083825,0.37896 -0.227376,0.28043 -0.303168,0.75792 h -2.08428 q 0.06821,-1.08383 0.606336,-1.78112 z m 1.60679,5.80567 q 0.303168,0.25011 0.742761,0.25011 0.697287,0 1.280885,-0.40927 0.591178,-0.40928 0.613915,-1.4931 v -0.8034 q -0.204638,0.12885 -0.416856,0.21222 -0.204638,0.0758 -0.56844,0.144 l -0.485068,0.0909 q -0.682128,0.12127 -0.977717,0.29559 -0.500227,0.29559 -0.500227,0.91708 0,0.55329 0.310747,0.79582 z m 11.133155,-4.70668 q -1.303622,0 -1.750795,0.84887 -0.250114,0.47749 -0.250114,1.47036 v 3.94877 h -2.17523 v -8.26133 h 2.061542 v 1.44005 q 0.500227,-0.82614 0.871608,-1.1293 0.606336,-0.50781 1.576474,-0.50781 0.06063,0 0.09853,0.008 0.04547,0 0.18948,0.008 v 2.21312 q -0.204638,-0.0227 -0.363801,-0.0303 -0.159164,-0.008 -0.257693,-0.008 z m 2.46255,-1.09899 q 0.85645,-1.0914 2.94073,-1.0914 1.356676,0 2.410185,0.53812 1.053509,0.53813 1.053509,2.03123 v 3.7896 q 0,0.39412 0.01516,0.95498 0.02274,0.42443 0.128846,0.57602 0.106109,0.15158 0.318327,0.25011 v 0.31833 h -2.349552 q -0.09853,-0.25012 -0.136426,-0.46991 -0.0379,-0.2198 -0.06063,-0.50023 -0.447173,0.48507 -1.030771,0.82613 -0.697287,0.4017 -1.576474,0.4017 -1.121721,0 -1.856903,-0.63665 -0.727604,-0.64424 -0.727604,-1.81901 0,-1.52342 1.174776,-2.20555 0.644232,-0.37138 1.8948,-0.53054 l 0.735182,-0.0909 q 0.598757,-0.0758 0.85645,-0.18948 0.462331,-0.19706 0.462331,-0.61392 0,-0.5078 -0.356222,-0.69728 -0.348643,-0.19706 -1.030771,-0.19706 -0.765499,0 -1.083826,0.37896 -0.227376,0.28043 -0.303168,0.75792 h -2.08428 q 0.06821,-1.08383 0.606336,-1.78112 z m 1.606791,5.80567 q 0.303168,0.25011 0.742761,0.25011 0.697286,0 1.280885,-0.40927 0.591177,-0.40928 0.613915,-1.4931 v -0.8034 q -0.204639,0.12885 -0.416856,0.21222 -0.204638,0.0758 -0.56844,0.144 l -0.485069,0.0909 q -0.682128,0.12127 -0.977716,0.29559 -0.500228,0.29559 -0.500228,0.91708 0,0.55329 0.310748,0.79582 z m 10.867886,-5.1008 q -1.098987,0 -1.508264,0.93224 -0.212218,0.49265 -0.212218,1.25815 v 4.47173 h -2.152492 v -8.24617 h 2.08428 v 1.20509 q 0.416855,-0.63665 0.788236,-0.91708 0.666968,-0.50023 1.690158,-0.50023 1.28089,0 2.09186,0.67455 0.81856,0.66697 0.81856,2.2207 v 5.56314 h -2.21313 v -5.02501 q 0,-0.65181 -0.17432,-1.00046 -0.31833,-0.63665 -1.21267,-0.63665 z"
       id="text1"
       aria-label="Karan" />
    <path
       id="path1"
       style="fill:#ff2a2a;stroke-width:3.77513;stroke-linecap:round;stroke-linejoin:round"
       d="m 109.67421,142.42509 a 1.2350655,1.2350655 0 0 1 -1.23507,1.23507 1.2350655,1.2350655 0 0 1 -1.23507,-1.23507 1.2350655,1.2350655 0 0 1 1.23507,-1.23506 1.2350655,1.2350655 0 0 1 1.23507,1.23506 z" />
  </g>
</svg>
