<?xml version="1.0" encoding="UTF-8" standalone="no"?>
<svg
   shape-rendering="geometricPrecision"
   text-rendering="geometricPrecision"
   image-rendering="optimizeQuality"
   fill-rule="evenodd"
   clip-rule="evenodd"
   viewBox="0 0 16 16"
   version="1.1"
   id="svg5"
   sodipodi:docname="figma.svg"
   width="16"
   height="16"
   inkscape:version="1.3.2 (091e20e, 2023-11-25)"
   xmlns:inkscape="http://www.inkscape.org/namespaces/inkscape"
   xmlns:sodipodi="http://sodipodi.sourceforge.net/DTD/sodipodi-0.dtd"
   xmlns="http://www.w3.org/2000/svg"
   xmlns:svg="http://www.w3.org/2000/svg">
  <defs
     id="defs5" />
  <sodipodi:namedview
     id="namedview5"
     pagecolor="#ffffff"
     bordercolor="#cccccc"
     borderopacity="1"
     inkscape:showpageshadow="0"
     inkscape:pageopacity="1"
     inkscape:pagecheckerboard="0"
     inkscape:deskcolor="#d1d1d1"
     inkscape:zoom="10.438595"
     inkscape:cx="16.09412"
     inkscape:cy="18.96807"
     inkscape:window-width="1440"
     inkscape:window-height="847"
     inkscape:window-x="0"
     inkscape:window-y="25"
     inkscape:window-maximized="1"
     inkscape:current-layer="svg5" />
  <g
     fill-rule="nonzero"
     id="g5"
     transform="matrix(0.02269346,0,0,0.02269346,4.0740318,2.1863899)">
    <path
       fill="#00b6ff"
       d="m 172.53,246.9 c 0,-42.04 34.09,-76.11 76.12,-76.11 h 11.01 c 0.3,0.01 0.63,-0.01 0.94,-0.01 47.16,0 85.4,38.25 85.4,85.4 0,47.15 -38.24,85.39 -85.4,85.39 -0.31,0 -0.64,-0.01 -0.95,-0.01 l -11,0.01 c -42.03,0 -76.12,-34.09 -76.12,-76.12 z"
       id="path1" />
    <path
       fill="#24cb71"
       d="m 0,426.98 c 0,-47.16 38.24,-85.41 85.4,-85.41 l 87.13,0.01 v 84.52 c 0,47.65 -39.06,86.26 -86.71,86.26 C 38.67,512.36 0,474.13 0,426.98 Z"
       id="path2" />
    <path
       fill="#ff7237"
       d="m 172.53,0.01 v 170.78 h 87.13 c 0.3,-0.01 0.63,0.01 0.94,0.01 47.16,0 85.4,-38.25 85.4,-85.4 C 346,38.24 307.76,0 260.6,0 c -0.31,0 -0.64,0.01 -0.95,0.01 z"
       id="path3" />
    <path
       fill="#ff3737"
       d="m 0,85.39 c 0,47.16 38.24,85.4 85.4,85.4 h 87.13 V 0.01 H 85.39 C 38.24,0.01 0,38.24 0,85.39 Z"
       id="path4" />
    <path
       fill="#874fff"
       d="m 0,256.18 c 0,47.16 38.24,85.4 85.4,85.4 h 87.13 V 170.8 H 85.39 C 38.24,170.8 0,209.03 0,256.18 Z"
       id="path5" />
  </g>
</svg>
