<?xml version="1.0" encoding="UTF-8" standalone="no"?>
<!-- Created with Inkscape (http://www.inkscape.org/) -->

<svg
   width="16"
   height="16"
   viewBox="0 0 4.2333333 4.2333333"
   version="1.1"
   id="svg1"
   inkscape:version="1.3.2 (091e20e, 2023-11-25)"
   sodipodi:docname="java.svg"
   xml:space="preserve"
   xmlns:inkscape="http://www.inkscape.org/namespaces/inkscape"
   xmlns:sodipodi="http://sodipodi.sourceforge.net/DTD/sodipodi-0.dtd"
   xmlns="http://www.w3.org/2000/svg"
   xmlns:svg="http://www.w3.org/2000/svg"><sodipodi:namedview
     id="namedview1"
     pagecolor="#ffffff"
     bordercolor="#cccccc"
     borderopacity="1"
     inkscape:showpageshadow="0"
     inkscape:pageopacity="1"
     inkscape:pagecheckerboard="0"
     inkscape:deskcolor="#ffffff"
     inkscape:document-units="px"
     inkscape:zoom="21.13943"
     inkscape:cx="4.9670213"
     inkscape:cy="11.826241"
     inkscape:window-width="1440"
     inkscape:window-height="847"
     inkscape:window-x="0"
     inkscape:window-y="25"
     inkscape:window-maximized="1"
     inkscape:current-layer="layer1" /><defs
     id="defs1" /><g
     inkscape:label="Layer 1"
     inkscape:groupmode="layer"
     id="layer1"><g
       id="g1"
       transform="matrix(0.03214717,0,0,0.03214717,0.05924244,0.05925463)"><path
         fill="#0074bd"
         d="m 47.617,98.12 c 0,0 -4.767,2.774 3.397,3.71 9.892,1.13 14.947,0.968 25.845,-1.092 0,0 2.871,1.795 6.873,3.351 -24.439,10.47 -55.308,-0.607 -36.115,-5.969 z M 44.629,84.455 c 0,0 -5.348,3.959 2.823,4.805 10.567,1.091 18.91,1.18 33.354,-1.6 0,0 1.993,2.025 5.132,3.131 -29.542,8.64 -62.446,0.68 -41.309,-6.336 z"
         id="path1" /><path
         fill="#ea2d2e"
         d="m 69.802,61.271 c 6.025,6.935 -1.58,13.17 -1.58,13.17 0,0 15.289,-7.891 8.269,-17.777 -6.559,-9.215 -11.587,-13.792 15.635,-29.58 0,0.001 -42.731,10.67 -22.324,34.187 z"
         id="path2" /><path
         fill="#0074bd"
         d="m 102.123,108.229 c 0,0 3.529,2.91 -3.888,5.159 -14.102,4.272 -58.706,5.56 -71.094,0.171 -4.451,-1.938 3.899,-4.625 6.526,-5.192 2.739,-0.593 4.303,-0.485 4.303,-0.485 -4.953,-3.487 -32.013,6.85 -13.743,9.815 49.821,8.076 90.817,-3.637 77.896,-9.468 z M 49.912,70.294 c 0,0 -22.686,5.389 -8.033,7.348 6.188,0.828 18.518,0.638 30.011,-0.326 9.39,-0.789 18.813,-2.474 18.813,-2.474 0,0 -3.308,1.419 -5.704,3.053 C 61.957,83.956 17.455,81.133 30.268,74.937 41.1,69.698 49.912,70.294 49.912,70.294 Z m 40.697,22.747 c 23.421,-12.167 12.591,-23.86 5.032,-22.285 -1.848,0.385 -2.677,0.72 -2.677,0.72 0,0 0.688,-1.079 2,-1.543 14.953,-5.255 26.451,15.503 -4.823,23.725 0,-0.002 0.359,-0.327 0.468,-0.617 z"
         id="path3" /><path
         fill="#ea2d2e"
         d="m 76.491,1.587 c 0,0 12.968,12.976 -12.303,32.923 C 43.922,50.516 59.567,59.64 64.181,70.069 52.35,59.396 43.672,49.999 49.493,41.254 58.041,28.42 81.722,22.195 76.491,1.587 Z"
         id="path4" /><path
         fill="#0074bd"
         d="m 52.214,126.021 c 22.476,1.437 57,-0.8 57.817,-11.436 0,0 -1.571,4.032 -18.577,7.231 -19.186,3.612 -42.854,3.191 -56.887,0.874 0,0.001 2.875,2.381 17.647,3.331 z"
         id="path5" /></g></g></svg>
