<?xml version="1.0" encoding="UTF-8" standalone="no"?>
<!-- Created with Inkscape (http://www.inkscape.org/) -->

<svg
   width="16"
   height="16"
   viewBox="0 0 4.2333333 4.2333333"
   version="1.1"
   id="svg1"
   inkscape:version="1.3.2 (091e20e, 2023-11-25)"
   sodipodi:docname="java-dark.svg"
   xml:space="preserve"
   xmlns:inkscape="http://www.inkscape.org/namespaces/inkscape"
   xmlns:sodipodi="http://sodipodi.sourceforge.net/DTD/sodipodi-0.dtd"
   xmlns="http://www.w3.org/2000/svg"
   xmlns:svg="http://www.w3.org/2000/svg"><sodipodi:namedview
     id="namedview1"
     pagecolor="#ffffff"
     bordercolor="#cccccc"
     borderopacity="1"
     inkscape:showpageshadow="0"
     inkscape:pageopacity="1"
     inkscape:pagecheckerboard="0"
     inkscape:deskcolor="#ffffff"
     inkscape:document-units="px"
     inkscape:zoom="21.13943"
     inkscape:cx="4.9670213"
     inkscape:cy="11.826241"
     inkscape:window-width="1312"
     inkscape:window-height="449"
     inkscape:window-x="0"
     inkscape:window-y="25"
     inkscape:window-maximized="0"
     inkscape:current-layer="layer1" /><defs
     id="defs1" /><g
     inkscape:label="Layer 1"
     inkscape:groupmode="layer"
     id="layer1"><g
       id="g2"
       style="fill:#ee4d4e;fill-opacity:1"><path
         fill="#ea2d2e"
         d="m 2.3031792,2.0289439 c 0.1936867,0.2229406 -0.050793,0.4233782 -0.050793,0.4233782 0,0 0.4914981,-0.2536733 0.2658249,-0.5714802 -0.2108533,-0.2962362 -0.3724892,-0.4433738 0.502621,-0.95091332 0,3.215e-5 -1.3736807,0.34301032 -0.7176529,1.09901532 z"
         id="path2"
         style="stroke-width:0.0321472;fill:#ee4d4e;fill-opacity:1" /><path
         fill="#ea2d2e"
         d="m 2.5182116,0.11027219 c 0,0 0.4168845,0.41714168 -0.3955066,1.05838131 C 1.4712104,1.6832011 1.9741529,1.9765118 2.12248,2.3117747 1.7421468,1.9686679 1.4631736,1.666581 1.6503023,1.385454 1.9250963,0.9728772 2.6863735,0.77276107 2.5182116,0.11027219 Z"
         id="path4"
         style="stroke-width:0.0321472;fill:#ee4d4e;fill-opacity:1" /></g><g
       id="g1"
       style="fill:#02adff;fill-opacity:1"><path
         fill="#0074bd"
         d="m 1.5899942,3.213535 c 0,0 -0.1532455,0.089176 0.109204,0.119266 0.3179998,0.036326 0.4805037,0.031118 0.8308436,-0.035105 0,0 0.092295,0.057704 0.2209475,0.1077252 C 1.9653446,3.7420023 0.9729936,3.3859081 1.5899942,3.213535 Z M 1.4939385,2.7742439 c 0,0 -0.1719231,0.1272706 0.090751,0.1544671 0.3396991,0.035073 0.6079029,0.037934 1.0722367,-0.051435 0,0 0.064069,0.065098 0.1649792,0.1006527 -0.9496917,0.2777516 -2.00746214,0.02186 -1.3279669,-0.2036848 z"
         id="path1"
         style="stroke-width:0.0321472;fill:#02adff;fill-opacity:1" /><path
         fill="#0074bd"
         d="m 3.3422079,3.5385107 c 0,0 0.1134473,0.093548 -0.1249882,0.1658472 C 2.7638803,3.8416907 1.3299879,3.8830962 0.93174878,3.7098551 0.78866173,3.6475539 1.0570906,3.5611744 1.1415412,3.542947 1.2295923,3.5238837 1.2798705,3.5273556 1.2798705,3.5273556 1.1206456,3.4152584 0.25074313,3.7475637 0.83807193,3.8428801 2.4396761,4.1025006 3.7575815,3.7259608 3.3422079,3.5385107 Z M 1.663772,2.3190078 c 0,0 -0.72929071,0.1732411 -0.2582382,0.2362174 0.1989267,0.026618 0.5953013,0.02051 0.9647687,-0.01048 0.3018619,-0.025364 0.6047847,-0.079532 0.6047847,-0.079532 0,0 -0.1063428,0.045617 -0.1833675,0.098145 C 2.0509847,2.7582024 0.62037129,2.667451 1.032273,2.4682671 1.3804911,2.2998481 1.663772,2.3190078 1.663772,2.3190078 Z M 2.9720654,3.0502595 C 3.7249842,2.6591249 3.3768304,2.283228 3.1338299,2.3338598 c -0.059408,0.012377 -0.086058,0.023146 -0.086058,0.023146 0,0 0.022117,-0.034687 0.064294,-0.049603 0.4806966,-0.1689334 0.8503248,0.4983775 -0.1550458,0.7626916 0,-6.43e-5 0.011541,-0.010512 0.015045,-0.019835 z"
         id="path3"
         style="stroke-width:0.0321472;fill:#02adff;fill-opacity:1" /><path
         fill="#0074bd"
         d="m 1.7377748,4.1104731 c 0.7225398,0.046195 1.8323887,-0.025718 1.8586529,-0.367635 0,0 -0.050503,0.1296174 -0.597198,0.2324562 -0.6167756,0.1161156 -1.3776348,0.1025816 -1.828756,0.028097 0,3.22e-5 0.092423,0.076542 0.5673011,0.1070818 z"
         id="path5"
         style="stroke-width:0.0321472;fill:#02adff;fill-opacity:1" /></g></g></svg>
