<?xml version="1.0" encoding="UTF-8" standalone="no"?>
<!-- Created with Inkscape (http://www.inkscape.org/) -->

<svg
   width="16"
   height="16"
   viewBox="0 0 4.2333333 4.2333333"
   version="1.1"
   id="svg1"
   xml:space="preserve"
   xmlns="http://www.w3.org/2000/svg"
   xmlns:svg="http://www.w3.org/2000/svg"><defs
     id="defs1">
	

		
	</defs><g
     id="layer1"><g
       id="g1"
       transform="matrix(0.09947172,0,0,0.09947172,-0.27065463,-0.27065463)"><g
         style="fill:#000000"
         id="g2"
         transform="matrix(66.497124,0,0,66.497124,-1036.6768,-1042.5637)"><path
           d="m 16.087126,16.006455 h -0.01973 c -0.0021,-0.0061 -0.0043,-0.01125 -0.0067,-0.01617 l 3.24e-4,7.01e-4 0.01404,-0.01389 c 0.0037,-0.0031 0.006,-0.0078 0.006,-0.01297 0,-0.0043 -0.0016,-0.0082 -0.0041,-0.01115 l 2.1e-5,2e-5 -0.03334,-0.03334 c -0.003,-0.0026 -0.0069,-0.0041 -0.01113,-0.0041 -0.0052,0 -0.0098,0.0023 -0.01295,0.006 l -2.2e-5,2.1e-5 -0.01397,0.01395 c -0.0042,-0.0022 -0.0093,-0.0043 -0.01458,-0.0061 l -8.92e-4,-2.64e-4 9.5e-5,-0.01973 c 3.2e-5,-4.19e-4 5.3e-5,-8.92e-4 5.3e-5,-0.0014 0,-0.009 -0.0069,-0.0163 -0.01572,-0.01696 h -5.3e-5 -0.04717 c -0.0089,6.38e-4 -0.01579,0.008 -0.01579,0.01696 0,4.94e-4 2.1e-5,9.56e-4 6.2e-5,0.0015 v -6.3e-5 0.01971 c -0.0061,0.0021 -0.01123,0.0043 -0.01616,0.0067 l 7.01e-4,-3.24e-4 -0.01389,-0.01402 c -0.0031,-0.0037 -0.0078,-0.006 -0.01297,-0.006 -0.0043,0 -0.0082,0.0016 -0.01115,0.0041 l 2.1e-5,-2.1e-5 -0.03335,0.03335 c -0.0026,0.003 -0.0041,0.0069 -0.0041,0.01113 0,0.0052 0.0023,0.0098 0.006,0.01295 l 2.1e-5,2.1e-5 0.01394,0.01394 c -0.0022,0.0042 -0.0043,0.0093 -0.0062,0.01464 l -2.5e-4,8.92e-4 -0.01973,-9.5e-5 c -4.19e-4,-3.2e-5 -8.92e-4,-5.3e-5 -0.0014,-5.3e-5 -0.009,0 -0.01631,0.0069 -0.01696,0.01573 v 5.3e-5 0.04716 c 6.37e-4,0.0089 0.008,0.01579 0.01696,0.01579 4.93e-4,0 9.56e-4,-2.2e-5 0.0015,-6.4e-5 h -6.3e-5 0.01972 c 0.0021,0.0061 0.0043,0.01125 0.0067,0.01617 l -3.16e-4,-7.01e-4 -0.01401,0.01385 c -0.0037,0.0031 -0.006,0.0078 -0.006,0.013 0,0.0043 0.0016,0.0082 0.0041,0.01116 l -2.1e-5,-2.1e-5 0.03335,0.03334 c 0.0026,0.0026 0.0062,0.0042 0.01018,0.0042 7.3e-5,0 1.47e-4,0 2.2e-4,0 h -1e-5 c 0.0054,-1.41e-4 0.01025,-0.0024 0.01372,-0.0061 l 10e-6,-10e-6 0.01395,-0.01395 c 0.0042,0.0022 0.0093,0.0043 0.01464,0.0062 l 8.92e-4,2.65e-4 -9.5e-5,0.0197 c -3.2e-5,4.2e-4 -5.3e-5,8.92e-4 -5.3e-5,0.0014 0,0.009 0.0069,0.01631 0.01573,0.01696 h 5.3e-5 0.04717 c 0.0088,-7.01e-4 0.01577,-0.008 0.01577,-0.01696 0,-4.93e-4 -2.1e-5,-9.55e-4 -6.3e-5,-0.0015 v 6.4e-5 -0.01973 c 0.0061,-0.0021 0.01126,-0.0043 0.01619,-0.0067 l -7.01e-4,3.24e-4 0.01386,0.01399 c 0.0035,0.0036 0.0083,0.0059 0.01368,0.0061 h 2.1e-5 2.1e-5 c 6.3e-5,0 1.4e-4,0 1.98e-4,0 0.004,0 0.0076,-0.0016 0.01019,-0.0041 l 0.03333,-0.03333 c 0.0025,-0.0026 0.0041,-0.0062 0.0041,-0.01016 0,-9.6e-5 0,-1.77e-4 0,-2.73e-4 v 1.1e-5 c -1.25e-4,-0.0054 -0.0024,-0.01021 -0.006,-0.01368 l -10e-6,-1e-5 -0.01397,-0.01397 c 0.0022,-0.0042 0.0043,-0.0093 0.0061,-0.01457 l 2.65e-4,-8.92e-4 0.01971,9.6e-5 c 4.2e-4,3.2e-5 8.92e-4,5.3e-5 0.0014,5.3e-5 0.009,0 0.01631,-0.0069 0.01696,-0.01574 v -5.3e-5 -0.04716 c -6.37e-4,-0.0089 -0.008,-0.01578 -0.01698,-0.01578 -4.92e-4,0 -9.56e-4,2.2e-5 -0.0015,6.2e-5 h 6.2e-5 z m 4.3e-5,0.06288 -0.02535,-1.26e-4 c -2.13e-4,0 -3.9e-4,1.04e-4 -5.89e-4,1.18e-4 -0.0021,2.5e-4 -0.0039,0.0012 -0.0052,0.0026 v 0 c -5.74e-4,7.63e-4 -0.0011,0.0016 -0.0015,0.0025 l -3.1e-5,8.1e-5 c -5.3e-5,1.48e-4 -1.7e-4,2.5e-4 -2.14e-4,4.13e-4 -0.0025,0.0089 -0.0058,0.01657 -0.0099,0.02375 l 2.72e-4,-5.15e-4 c -5.66e-4,0.001 -8.92e-4,0.0023 -8.92e-4,0.0036 0,10e-6 0,3.1e-5 0,4.2e-5 v 0 c 0,1.69e-4 3.1e-5,2.94e-4 4.2e-5,4.71e-4 6.3e-5,0.002 8.29e-4,0.0037 0.0021,0.005 v 0 l 9.6e-5,2.43e-4 0.01791,0.01793 c 0.0011,0.0011 0.0015,0.0022 0.0018,0.0018 l -0.03255,0.03287 c -10e-4,-1.4e-4 -0.002,-6.37e-4 -0.0026,-0.0013 v 0 l -0.0178,-0.01797 c -8.1e-5,-9.6e-5 -2.28e-4,-5.2e-5 -3.17e-4,-1.4e-4 -0.0013,-0.0011 -0.0029,-0.0019 -0.0048,-0.002 h -2.1e-5 c -2.13e-4,-3.1e-5 -4.64e-4,-5.2e-5 -7.01e-4,-6.3e-5 h -1e-5 c -0.0013,0 -0.0025,3.39e-4 -0.0036,9.56e-4 l 4.2e-5,-2.1e-5 c -0.0067,0.0038 -0.01441,0.0071 -0.02251,0.0095 l -7.65e-4,1.99e-4 c -1.54e-4,4.2e-5 -2.65e-4,1.55e-4 -4.12e-4,2.13e-4 -10e-4,4.42e-4 -0.0018,9.55e-4 -0.0027,0.0016 l 3.2e-5,-2e-5 c -3.68e-4,3.54e-4 -7.01e-4,7.65e-4 -9.56e-4,0.0011 l -2.1e-5,2.1e-5 c -2.8e-4,3.46e-4 -5.59e-4,7.65e-4 -7.65e-4,0.0011 l -2.1e-5,4.2e-5 c -3.46e-4,8.29e-4 -6.18e-4,0.0018 -7.64e-4,0.0029 l -1e-5,7.3e-5 c -1.1e-5,1.69e-4 -1.04e-4,3.24e-4 -1.04e-4,4.93e-4 v 0.0253 c 0,0.0016 -5.74e-4,0.0026 0,0.0026 l -0.04627,2.43e-4 c -5.45e-4,-7.01e-4 -8.92e-4,-0.0016 -8.92e-4,-0.0025 0,-8.1e-5 0,-1.69e-4 10e-6,-2.5e-4 v 1.1e-5 l 1.25e-4,-0.02531 c 0,-1.77e-4 -8.1e-5,-3.39e-4 -1.03e-4,-5.01e-4 -5.3e-5,-5.59e-4 -1.54e-4,-0.0011 -3.16e-4,-0.0016 l 10e-6,5.3e-5 c -1.25e-4,-5.6e-4 -2.94e-4,-0.001 -5e-4,-0.0015 l 2.1e-5,5.3e-5 c -5.45e-4,-8.92e-4 -0.0011,-0.0017 -0.0018,-0.0024 v 0 c -3.02e-4,-2.5e-4 -6.38e-4,-4.86e-4 -10e-4,-7.01e-4 l -4.2e-5,-2.1e-5 c -4.64e-4,-3.17e-4 -9.56e-4,-5.89e-4 -0.0015,-8.28e-4 l -5.3e-5,-2.1e-5 c -1.47e-4,-5.3e-5 -2.5e-4,-1.7e-4 -4.12e-4,-2.14e-4 -0.0089,-0.0025 -0.01663,-0.0058 -0.02384,-0.0099 l 5.37e-4,2.72e-4 c -10e-4,-5.66e-4 -0.0023,-8.92e-4 -0.0036,-8.92e-4 v 0 c -2.28e-4,-10e-6 -4.2e-4,4.2e-5 -6.37e-4,5.3e-5 -0.0019,8e-5 -0.0036,8.28e-4 -0.0049,0.002 h 1.1e-5 c -8.1e-5,8e-5 -2.21e-4,4.2e-5 -3.02e-4,1.24e-4 l -0.01789,0.01789 c -0.0011,0.0011 -0.0023,0.0015 -0.0018,0.0018 l -0.03288,-0.03253 c 1.25e-4,-0.001 6.33e-4,-0.002 0.0013,-0.0026 v 0 l 0.01798,-0.01778 1.17e-4,-2.72e-4 c 0.0012,-0.0013 0.002,-0.003 0.002,-0.0049 v -2.1e-5 c 10e-6,-2.2e-4 5.2e-5,-3.9e-4 5.2e-5,-6.1e-4 0,-1.1e-5 0,-2.1e-5 0,-3.2e-5 0,-0.0013 -3.38e-4,-0.0025 -8.92e-4,-0.0036 l 2.1e-5,4.2e-5 c -0.0038,-0.0067 -0.0071,-0.01438 -0.0095,-0.02251 l -1.91e-4,-7.65e-4 c -4.2e-5,-1.55e-4 -1.69e-4,-2.72e-4 -2.2e-4,-4.27e-4 -4.42e-4,-9.56e-4 -9.56e-4,-0.0018 -0.0015,-0.0026 l 2.2e-5,3.1e-5 c -7.01e-4,-6.37e-4 -0.0014,-0.0012 -0.0022,-0.0017 l -6.3e-5,-3.1e-5 c -5.37e-4,-2.66e-4 -0.0011,-4.71e-4 -0.0018,-5.96e-4 l -5.2e-5,-1.1e-5 c -3.02e-4,-9.6e-5 -7.01e-4,-1.69e-4 -0.0011,-2.21e-4 h -4.2e-5 c -2.13e-4,-2.1e-5 -3.9e-4,-1.25e-4 -6.11e-4,-1.25e-4 h -0.0253 c -0.0016,2.1e-5 -0.0026,-5.74e-4 -0.0026,-2e-5 l -2.28e-4,-0.04626 c 7.01e-4,-5.45e-4 0.0016,-8.93e-4 0.0025,-8.93e-4 9.5e-5,0 1.76e-4,0 2.72e-4,1.1e-5 h -1.1e-5 l 0.02535,1.25e-4 c 0.0016,-4.2e-5 0.0031,-5.66e-4 0.0043,-0.0014 l -2.1e-5,2.1e-5 c 2.5e-4,-1.47e-4 4.63e-4,-2.94e-4 7.01e-4,-4.49e-4 l -2.1e-5,10e-6 c 0.0011,-8.92e-4 0.002,-0.0022 0.0025,-0.0036 l 1e-5,-5.2e-5 c 3.2e-5,-1.03e-4 1.47e-4,-1.47e-4 1.77e-4,-2.65e-4 0.0025,-0.0089 0.0058,-0.01661 0.0099,-0.02382 l -2.73e-4,5.22e-4 c 5.67e-4,-10e-4 8.92e-4,-0.0023 8.92e-4,-0.0036 0,-1.1e-5 0,-1.1e-5 0,-2.1e-5 v 0 c 1.1e-5,-1.99e-4 -3.1e-5,-3.46e-4 -4.2e-5,-5.45e-4 -7.3e-5,-0.0019 -8.28e-4,-0.0037 -0.002,-0.005 v 0 l -1.03e-4,-2.5e-4 -0.01789,-0.01789 c -0.0011,-0.0011 -0.0015,-0.0023 -0.0018,-0.0018 l 0.03255,-0.03288 c 0.0011,8.1e-5 0.002,6.11e-4 0.0026,0.0014 l 1.1e-5,1.1e-5 0.0178,0.01797 c 1.92e-4,1.92e-4 4.86e-4,1.18e-4 7.01e-4,2.8e-4 0.0013,0.0013 0.0031,0.002 0.0051,0.002 0.0013,0 0.0026,-3.75e-4 0.0037,-10e-4 l -3.2e-5,2.1e-5 c 0.0067,-0.0038 0.01439,-0.0071 0.02251,-0.0095 l 7.64e-4,-1.91e-4 c 1.48e-4,-4.2e-5 2.51e-4,-1.54e-4 3.98e-4,-1.99e-4 5.96e-4,-2.2e-4 0.0011,-4.92e-4 0.0016,-8.28e-4 l -3.1e-5,2.1e-5 c 0.0017,-9.56e-4 0.0029,-0.0025 0.0034,-0.0045 l 1.1e-5,-4.2e-5 c 1.47e-4,-4.49e-4 2.64e-4,-9.56e-4 3.16e-4,-0.0015 v -3.2e-5 c 1.1e-5,-1.69e-4 9.5e-5,-3.16e-4 9.5e-5,-4.86e-4 v -0.0253 c 0,-0.0016 5.89e-4,-0.0026 1.1e-5,-0.0026 l 0.04627,-2.43e-4 c 5.44e-4,7.01e-4 8.92e-4,0.0016 8.92e-4,0.0025 0,9.6e-5 0,1.77e-4 -1.1e-5,2.73e-4 v -1.1e-5 l -1.24e-4,0.02531 c 0,1.69e-4 8e-5,3.16e-4 9.5e-5,4.93e-4 5.2e-5,5.74e-4 1.54e-4,0.0011 3.24e-4,0.0017 l -1.1e-5,-5.2e-5 c 7.65e-4,0.0025 0.0025,0.0044 0.0048,0.0053 l 5.2e-5,2.1e-5 c 1.47e-4,5.2e-5 2.65e-4,1.69e-4 4.12e-4,2.14e-4 0.0089,0.0025 0.01658,0.0058 0.02376,0.0099 l -5.23e-4,-2.72e-4 c 0.0011,6.33e-4 0.0024,0.001 0.0038,0.001 0,0 10e-6,0 10e-6,0 v 0 c 0.0019,-8.1e-5 0.0036,-8.92e-4 0.005,-0.0021 v 0 c 1.76e-4,-1.55e-4 4.49e-4,-8.1e-5 6.18e-4,-2.5e-4 l 0.01793,-0.01789 c 0.0011,-0.0011 0.0022,-0.0015 0.0018,-0.0018 l 0.03287,0.03254 c -1.26e-4,10e-4 -6.19e-4,0.002 -0.0013,0.0026 v 0 l -0.01799,0.0178 -1.17e-4,2.72e-4 c -0.0012,0.0013 -0.002,0.003 -0.0021,0.0049 v 2.1e-5 c -1e-5,2.14e-4 -5.2e-5,3.76e-4 -5.2e-5,5.89e-4 0,1.1e-5 0,2.1e-5 0,3.2e-5 0,0.0013 3.38e-4,0.0025 8.92e-4,0.0036 l -2.1e-5,-4.2e-5 c 0.0038,0.0067 0.0071,0.01438 0.0095,0.02249 l 1.92e-4,7.65e-4 c 3.1e-5,1.25e-4 1.69e-4,1.76e-4 1.98e-4,2.94e-4 4.86e-4,0.0015 0.0013,0.0027 0.0024,0.0036 l 10e-6,1.1e-5 c 1.99e-4,1.55e-4 4.27e-4,3.16e-4 6.37e-4,4.49e-4 l 3.1e-5,2.1e-5 c 0.0011,8.28e-4 0.0026,0.0013 0.0042,0.0014 h 1.1e-5 0.0253 c 0.0016,-10e-6 0.0026,5.96e-4 0.0026,1.1e-5 l 2.21e-4,0.04626 c -7.01e-4,5.59e-4 -0.0016,8.92e-4 -0.0025,8.92e-4 -1.03e-4,0 -1.99e-4,0 -3.02e-4,-1.1e-5 h 1.1e-5 z m -0.136432,-0.07344 c -0.02752,0 -0.04983,0.02232 -0.04983,0.04983 0,0.02752 0.02231,0.04983 0.04983,0.04983 0.02752,0 0.04983,-0.02231 0.04983,-0.04983 v 0 c -3.1e-5,-0.02751 -0.02233,-0.0498 -0.04983,-0.04983 z m 0,0.08393 c -0.01884,0 -0.0341,-0.01527 -0.0341,-0.0341 0,-0.01883 0.01527,-0.0341 0.0341,-0.0341 0.01883,0 0.0341,0.01527 0.0341,0.0341 v 0 c -2.1e-5,0.01882 -0.01527,0.03408 -0.0341,0.0341 z"
           id="path1"
           style="stroke-width:0.0104916" /><g
           id="g6"><path
             id="rect2"
             style="color:#000000;stroke-linecap:round;stroke-linejoin:round;-inkscape-stroke:none"
             d="M 16.191733 15.767605 C 16.177855 15.768307 16.166392 15.778048 16.163061 15.791042 L 16.079545 15.791042 C 16.036445 15.791042 16.001342 15.826057 16.001342 15.869167 L 16.001342 15.902527 L 16.015014 15.902527 L 16.015014 15.869167 C 16.015014 15.833577 16.043877 15.804714 16.079467 15.804714 L 16.16267 15.804714 C 16.165417 15.81918 16.178085 15.830105 16.193373 15.830105 C 16.210683 15.830102 16.226586 15.816165 16.226576 15.798855 C 16.226574 15.781555 16.210673 15.767605 16.193373 15.767605 C 16.192833 15.767605 16.192266 15.767578 16.191733 15.767605 z M 16.192358 15.779324 C 16.192692 15.779307 16.193035 15.779324 16.193373 15.779324 C 16.204193 15.779326 16.212904 15.788025 16.212904 15.798855 C 16.212906 15.809675 16.204203 15.818386 16.193373 15.818386 C 16.182553 15.818385 16.173842 15.809685 16.173842 15.798855 C 16.173844 15.788373 16.182001 15.779845 16.192358 15.779324 z " /><path
             id="path4"
             style="color:#000000;stroke-linecap:round;stroke-linejoin:round;-inkscape-stroke:none"
             d="m 15.709739,15.767597 c 0.01388,7.02e-4 0.02534,0.01044 0.02867,0.02344 h 0.08352 c 0.0431,0 0.0782,0.03501 0.0782,0.07813 v 0.03336 h -0.01367 v -0.03336 c 0,-0.03559 -0.02886,-0.06445 -0.06445,-0.06445 h -0.0832 c -0.0027,0.01447 -0.01542,0.02539 -0.0307,0.02539 -0.01731,-3e-6 -0.03321,-0.01394 -0.0332,-0.03125 2e-6,-0.0173 0.0159,-0.03125 0.0332,-0.03125 5.4e-4,0 0.0011,-2.7e-5 0.0016,0 z m -6.25e-4,0.01172 c -3.34e-4,-1.7e-5 -6.77e-4,0 -10e-4,0 -0.01082,2e-6 -0.01953,0.0087 -0.01953,0.01953 -2e-6,0.01082 0.0087,0.01953 0.01953,0.01953 0.01082,-10e-7 0.01953,-0.0087 0.01953,-0.01953 -2e-6,-0.01048 -0.0082,-0.01901 -0.01852,-0.01953 z" /></g><g
           id="g7"
           transform="matrix(1,0,0,-1,0,32.091603)"><path
             id="path6"
             style="color:#000000;stroke-linecap:round;stroke-linejoin:round;-inkscape-stroke:none"
             d="m 16.191733,15.767605 c -0.01388,7.02e-4 -0.02534,0.01044 -0.02867,0.02344 h -0.08352 c -0.0431,0 -0.0782,0.03502 -0.0782,0.07813 v 0.03336 h 0.01367 v -0.03336 c 0,-0.03559 0.02886,-0.06445 0.06445,-0.06445 h 0.0832 c 0.0027,0.01447 0.01542,0.02539 0.0307,0.02539 0.01731,-3e-6 0.03321,-0.01394 0.0332,-0.03125 -2e-6,-0.0173 -0.0159,-0.03125 -0.0332,-0.03125 -5.4e-4,0 -0.0011,-2.7e-5 -0.0016,0 z m 6.25e-4,0.01172 c 3.34e-4,-1.7e-5 6.77e-4,0 0.001,0 0.01082,2e-6 0.01953,0.0087 0.01953,0.01953 2e-6,0.01082 -0.0087,0.01953 -0.01953,0.01953 -0.01082,-10e-7 -0.01953,-0.0087 -0.01953,-0.01953 2e-6,-0.01048 0.0082,-0.01901 0.01852,-0.01953 z" /><path
             id="path7"
             style="color:#000000;stroke-linecap:round;stroke-linejoin:round;-inkscape-stroke:none"
             d="m 15.709739,15.767597 c 0.01388,7.02e-4 0.02534,0.01044 0.02867,0.02344 h 0.08352 c 0.0431,0 0.0782,0.03501 0.0782,0.07813 v 0.03336 h -0.01367 v -0.03336 c 0,-0.03559 -0.02886,-0.06445 -0.06445,-0.06445 h -0.0832 c -0.0027,0.01447 -0.01542,0.02539 -0.0307,0.02539 -0.01731,-3e-6 -0.03321,-0.01394 -0.0332,-0.03125 2e-6,-0.0173 0.0159,-0.03125 0.0332,-0.03125 5.4e-4,0 0.0011,-2.7e-5 0.0016,0 z m -6.25e-4,0.01172 c -3.34e-4,-1.7e-5 -6.77e-4,0 -10e-4,0 -0.01082,2e-6 -0.01953,0.0087 -0.01953,0.01953 -2e-6,0.01082 0.0087,0.01953 0.01953,0.01953 0.01082,-10e-7 0.01953,-0.0087 0.01953,-0.01953 -2e-6,-0.01048 -0.0082,-0.01901 -0.01852,-0.01953 z" /></g></g></g></g><style
     type="text/css"
     id="style1">
	.st0{fill:#6DB33F;}
</style></svg>
