<?xml version="1.0" encoding="UTF-8" standalone="no"?>
<svg
   shape-rendering="geometricPrecision"
   text-rendering="geometricPrecision"
   image-rendering="optimizeQuality"
   fill-rule="evenodd"
   clip-rule="evenodd"
   viewBox="0 0 16 15.999999"
   version="1.1"
   id="svg1"
   sodipodi:docname="micro-services-dark.svg"
   width="16"
   height="16"
   inkscape:version="1.3.2 (091e20e, 2023-11-25)"
   xmlns:inkscape="http://www.inkscape.org/namespaces/inkscape"
   xmlns:sodipodi="http://sodipodi.sourceforge.net/DTD/sodipodi-0.dtd"
   xmlns="http://www.w3.org/2000/svg"
   xmlns:svg="http://www.w3.org/2000/svg">
  <defs
     id="defs1" />
  <sodipodi:namedview
     id="namedview1"
     pagecolor="#ffffff"
     bordercolor="#cccccc"
     borderopacity="1"
     inkscape:showpageshadow="0"
     inkscape:pageopacity="1"
     inkscape:pagecheckerboard="0"
     inkscape:deskcolor="#d1d1d1"
     inkscape:zoom="15.356958"
     inkscape:cx="10.809432"
     inkscape:cy="7.7489305"
     inkscape:window-width="1440"
     inkscape:window-height="847"
     inkscape:window-x="0"
     inkscape:window-y="25"
     inkscape:window-maximized="1"
     inkscape:current-layer="svg1" />
  <path
     d="m 10.087683,5.510302 0.470557,0.4594108 c 0.123815,0.1211038 0.126225,0.3211356 0.0054,0.4452519 l -0.370197,0.378675 a 2.4830472,2.4830472 0 0 1 0.239798,0.6172672 l 0.485317,-0.00603 c 0.17292,-0.0021 0.316317,0.1379738 0.318426,0.310893 l 0.0075,0.6576352 c 0.0021,0.1732234 -0.137662,0.3166197 -0.310883,0.3184274 l -0.529301,0.00632 a 2.4863007,2.4863007 0 0 1 -0.267211,0.605221 l 0.347344,0.3392108 c 0.123815,0.1211037 0.126225,0.3214373 0.0054,0.4449507 l -0.459452,0.470858 c -0.121104,0.123816 -0.3214371,0.126225 -0.4452522,0.0051 L 9.2062166,10.19358 a 2.4854875,2.4854875 0 0 1 -0.6169661,0.239797 l 0.00572,0.485018 c 0.00211,0.173221 -0.1379739,0.316616 -0.3108929,0.318726 l -0.6576352,0.0075 c -0.1729192,0.0021 -0.3163157,-0.137672 -0.3184245,-0.310893 l -0.00632,-0.529301 A 2.5091056,2.5091056 0 0 1 6.6964781,10.136925 l -0.339211,0.347646 c -0.1211035,0.123816 -0.3214368,0.126226 -0.4452517,0.0051 L 5.4417608,10.030301 C 5.3176447,9.909197 5.3152347,9.7091647 5.4363382,9.5850483 L 5.8062768,9.2063739 C 5.6996333,9.012367 5.6182952,8.8045024 5.5664795,8.5894078 l -0.4853184,0.00572 C 4.9082418,8.5972402 4.7648455,8.4571584 4.7627366,8.2842392 L 4.7552059,7.626604 C 4.753098,7.4536847 4.8928785,7.3102884 5.066099,7.3081797 l 0.5293013,-0.00632 A 2.5234453,2.5234453 0 0 1 5.8626118,6.6963354 L 5.515267,6.3571247 C 5.3914521,6.2360209 5.3893434,6.035989 5.510146,5.9121742 L 5.9695568,5.441617 C 6.0903591,5.317802 6.2906924,5.315392 6.4145074,5.436497 L 6.7934836,5.8064347 A 2.4854271,2.4854271 0 0 1 7.4104495,5.5666374 L 7.4047252,5.0816201 C 7.4026172,4.9087009 7.5426991,4.7653046 7.7159196,4.7631958 l 0.6573339,-0.00784 c 0.1732203,-0.0021 0.3163155,0.1376727 0.3184242,0.310893 l 0.00632,0.5293016 A 2.5071474,2.5071474 0 0 1 9.3038232,5.8627693 L 9.6427327,5.5154247 C 9.7638363,5.3916098 9.9641697,5.3895011 10.087985,5.5103038 Z M 7.6294591,3.7636376 V 3.0300866 A 1.3991994,1.3991994 0 0 1 6.9977317,2.6664743 C 6.7446792,2.4122168 6.5880276,2.0624622 6.5880276,1.6777621 c 0,-0.3840974 0.1563503,-0.73355087 0.4097041,-0.98690459 l 0.00121,-0.001204 C 7.2522904,0.43660003 7.6014425,0.2799485 7.9858414,0.2799485 c 0.3843987,0 0.7338521,0.15665153 0.9872058,0.40970401 l 0.00121,0.001204 c 0.25305,0.25335405 0.4097015,0.60280749 0.4097015,0.98690499 0,0.3847 -0.1566515,0.7344546 -0.4103064,0.9878084 A 1.3891677,1.3891677 0 0 1 8.3003474,3.0406303 v 0.7124632 c -0.1985257,8.974e-4 -0.3979552,0.00512 -0.5964809,0.00753 -0.025004,3.055e-4 -0.049707,0.00121 -0.074409,0.00301 z m 0.6892668,9.2005664 c 0.2515462,0.06146 0.4765822,0.191898 0.6543213,0.369336 l 0.00121,0.0015 c 0.2530525,0.253354 0.409704,0.602506 0.409704,0.986905 0,0.384398 -0.1566515,0.73355 -0.409704,0.986904 l -0.00121,0.0015 c -0.2533537,0.253052 -0.6028071,0.409703 -0.9872058,0.409703 -0.3843989,0 -0.733551,-0.156651 -0.9869046,-0.409703 l -0.00121,-0.0015 C 6.74438,15.055504 6.5880297,14.706352 6.5880297,14.321953 c 0,-0.384399 0.1563503,-0.733551 0.4097041,-0.986905 l 0.00121,-0.0015 c 0.1765297,-0.176216 0.399758,-0.305756 0.6488942,-0.368114 v -0.718188 c 0.2156971,-3.05e-4 0.432298,-0.0054 0.647694,-0.0078 l 0.023196,-6.11e-4 z m 0.1813542,0.842302 C 8.3696377,13.676064 8.1876808,13.595028 7.9858414,13.595028 c -0.2015382,0 -0.3834951,0.08103 -0.5139376,0.211479 l -0.00151,0.0012 c -0.1304424,0.130744 -0.2114795,0.312399 -0.2114795,0.514239 0,0.201839 0.081037,0.383494 0.2114795,0.514239 l 0.00151,0.0012 c 0.1304425,0.130443 0.3123994,0.21148 0.5139376,0.21148 0.2018394,0 0.3837963,-0.08103 0.5142387,-0.21148 l 0.00121,-0.0012 c 0.1307366,-0.130742 0.2117738,-0.312398 0.2117738,-0.514236 0,-0.201841 -0.081037,-0.383495 -0.2117809,-0.514239 z m 0,-12.6438864 C 8.3696377,1.0318758 8.1876808,0.95083879 7.9858414,0.95083879 c -0.2015382,0 -0.3834951,0.0810371 -0.5139376,0.21178081 l -0.00151,0.00121 C 7.339953,1.294267 7.2589159,1.4762237 7.2589159,1.677762 c 0,0.2018395 0.081037,0.3837963 0.2114795,0.51454 0.1328527,0.1313463 0.3148095,0.2126845 0.5154439,0.2126845 0.2009356,0 0.3828925,-0.081339 0.5142386,-0.2126845 0.1319488,-0.1307437 0.212986,-0.3127005 0.212986,-0.51454 0,-0.2015383 -0.081037,-0.383495 -0.2117809,-0.5139376 z m 4.9854349,8.5965536 c 0.384398,0 0.733852,0.1566518 0.987206,0.4097038 l 0.0012,0.0012 c 0.253052,0.253354 0.409704,0.602808 0.409704,0.987207 0,0.384399 -0.156652,0.733551 -0.409704,0.986905 l -0.0012,0.0015 c -0.253354,0.253053 -0.602808,0.409403 -0.987206,0.409403 -0.384398,0 -0.734153,-0.156652 -0.987507,-0.410306 -0.253655,-0.252149 -0.410608,-0.601904 -0.410608,-0.987507 0,-0.140987 0.02108,-0.277153 0.05995,-0.405487 l -0.66336,-0.383193 c 0.06687,-0.164485 0.09941,-0.340417 0.09731,-0.5160464 -6.11e-4,-0.07049 -0.0072,-0.1406854 -0.01898,-0.2099734 l 0.926352,0.5347238 0.0084,-0.0084 c 0.252751,-0.2527512 0.602807,-0.4097034 0.988411,-0.4097034 z m 0.514239,0.8826708 c -0.130443,-0.130743 -0.312399,-0.211781 -0.514239,-0.211781 -0.200634,0 -0.382891,0.08164 -0.514239,0.212987 a 0.72511584,0.72511584 0 0 0 -0.212684,0.514239 c 0,0.200936 0.08134,0.382591 0.212684,0.513938 0.130744,0.131949 0.312701,0.212984 0.514239,0.212984 0.20184,0 0.383796,-0.08103 0.514239,-0.211479 l 0.0012,-0.0015 c 0.130744,-0.130442 0.211781,-0.312098 0.211781,-0.513937 0,-0.20184 -0.08104,-0.383796 -0.211781,-0.514238 z M 2.5144854,9.7591732 c 0.3777712,0 0.7211995,0.1506265 0.9727457,0.3943408 L 4.3533333,9.6531327 c -0.00632,0.055728 -0.00904,0.1114631 -0.00844,0.1674969 0.00182,0.1852704 0.042778,0.3696364 0.1214049,0.5401464 L 3.843006,10.720774 c 0.045188,0.137371 0.069589,0.284081 0.069589,0.436515 0,0.385603 -0.156953,0.735358 -0.4097041,0.98841 -0.2542575,0.252751 -0.6040122,0.409403 -0.9884109,0.409403 -0.3843988,0 -0.7338522,-0.156351 -0.987206,-0.409403 l -0.00121,-0.0015 C 1.273022,11.89084 1.1163705,11.541688 1.1163705,11.157289 c 0,-0.384701 0.1566515,-0.734153 0.4103065,-0.987809 C 1.7788257,9.9161263 2.1285804,9.7591732 2.5144854,9.7591732 Z M 3.0287242,10.64305 A 0.72589909,0.72589909 0 0 0 2.5144854,10.430063 c -0.2009357,0 -0.3828925,0.08164 -0.5142388,0.212987 -0.1319488,0.130442 -0.2129858,0.3124 -0.2129858,0.514239 0,0.20184 0.081037,0.383495 0.2117808,0.513938 l 0.00121,0.0015 c 0.1304425,0.130442 0.3123993,0.21148 0.5142388,0.21148 0.2015382,0 0.383495,-0.08104 0.5142389,-0.21148 0.1313463,-0.132852 0.2126843,-0.314508 0.2126843,-0.515443 0,-0.200935 -0.081339,-0.382893 -0.2126843,-0.514239 z M 13.485515,3.4370793 c 0.385905,0 0.735661,0.1566516 0.988713,0.4097041 0.252751,0.2527512 0.409402,0.6025057 0.409402,0.9884109 0,0.3843987 -0.156651,0.7338522 -0.409703,0.9872058 l -0.0012,0.00121 c -0.253353,0.2530525 -0.602808,0.4097041 -0.987206,0.4097041 -0.385603,0 -0.73566,-0.1569528 -0.988411,-0.4097041 l -0.01778,-0.018376 -0.826941,0.4780885 c 0.0024,-0.034644 0.0033,-0.069288 0.0027,-0.1036311 A 1.3255431,1.3255431 0 0 0 11.510803,5.5922412 l 0.632632,-0.3657211 c -0.03615,-0.1241163 -0.05603,-0.2554626 -0.05603,-0.3913275 0,-0.3843988 0.156651,-0.733551 0.409704,-0.9869047 l 0.0015,-0.00151 c 0.253333,-0.2530538 0.602485,-0.4097054 0.986883,-0.4097054 z m 0.51454,0.8838762 a 0.72583884,0.72583884 0 0 0 -0.51454,-0.2126847 c -0.201839,0 -0.383495,0.081037 -0.514239,0.2114796 l -0.0012,0.00121 c -0.130443,0.1307437 -0.21148,0.3123994 -0.21148,0.5142389 0,0.2006344 0.08134,0.3828923 0.212684,0.5142386 a 0.72589909,0.72589909 0 0 0 0.514238,0.2129858 c 0.20184,0 0.383797,-0.081037 0.514239,-0.2117807 l 0.0012,-0.00121 c 0.130744,-0.1304424 0.21178,-0.3123994 0.21178,-0.5142387 0,-0.2009357 -0.08164,-0.3831938 -0.212683,-0.5142388 z M 2.5144854,3.4370793 c 0.3843988,0 0.733551,0.1566516 0.9869046,0.4097041 l 0.00151,0.00151 c 0.253054,0.253355 0.4097055,0.6025073 0.4097055,0.9869061 0,0.113271 -0.013859,0.2235297 -0.039163,0.3289682 L 4.5428236,5.5699523 A 1.3246996,1.3246996 0 0 0 4.4268412,6.2803067 l -0.862188,-0.522676 c -0.019883,0.022594 -0.040669,0.044886 -0.061757,0.065974 -0.2527512,0.2527511 -0.6028071,0.409704 -0.9884109,0.409704 -0.385905,0 -0.7356597,-0.1569529 -0.9884109,-0.409704 C 1.273022,5.5693476 1.1163705,5.2198943 1.1163705,4.8351943 c 0,-0.3843988 0.1566515,-0.733551 0.409704,-0.9869046 l 0.0012,-0.00151 C 1.7806331,3.5937287 2.1300865,3.4370772 2.5144852,3.4370772 Z M 3.0287242,4.3197504 C 2.8979804,4.189308 2.7163249,4.1082708 2.5144854,4.1082708 c -0.2018395,0 -0.3837962,0.081037 -0.5142388,0.2114796 l -0.0012,0.00121 C 1.868298,4.4516971 1.787261,4.6333528 1.787261,4.8351923 c 0,0.2018392 0.081037,0.3837962 0.2117808,0.5142386 0.1325513,0.1313463 0.3145081,0.2129858 0.5154438,0.2129858 0.2006344,0 0.3828925,-0.08164 0.5142388,-0.2129858 A 0.72565809,0.72565809 0 0 0 3.2414089,4.8351923 c 0,-0.2018395 -0.081037,-0.3834952 -0.2114794,-0.514239 z M 7.9843351,6.70718 C 8.6983045,6.6987443 9.2842416,7.2708243 9.2926767,7.9844926 9.3014121,8.698462 8.7290324,9.2843991 8.0150629,9.292834 7.3013946,9.3015694 6.7154577,8.7291897 6.7070226,8.0155216 6.698587,7.3015521 7.2706669,6.7156152 7.9843351,6.70718 Z"
     id="path1"
     style="stroke-width:0.0301253;fill:#e6e6e6" />
</svg>
