<?xml version="1.0" encoding="UTF-8" standalone="no"?>
<!-- Created with Inkscape (http://www.inkscape.org/) -->

<svg
   width="16"
   height="16"
   viewBox="0 0 4.2333333 4.2333333"
   version="1.1"
   id="svg1"
   xml:space="preserve"
   sodipodi:docname="my-sql-dark.svg"
   inkscape:version="1.3.2 (091e20e, 2023-11-25)"
   xmlns:inkscape="http://www.inkscape.org/namespaces/inkscape"
   xmlns:sodipodi="http://sodipodi.sourceforge.net/DTD/sodipodi-0.dtd"
   xmlns="http://www.w3.org/2000/svg"
   xmlns:svg="http://www.w3.org/2000/svg"><sodipodi:namedview
     id="namedview1"
     pagecolor="#ffffff"
     bordercolor="#cccccc"
     borderopacity="1"
     inkscape:showpageshadow="0"
     inkscape:pageopacity="1"
     inkscape:pagecheckerboard="0"
     inkscape:deskcolor="#d1d1d1"
     inkscape:zoom="35.308094"
     inkscape:cx="11.073948"
     inkscape:cy="7.8452267"
     inkscape:window-width="1440"
     inkscape:window-height="847"
     inkscape:window-x="0"
     inkscape:window-y="25"
     inkscape:window-maximized="1"
     inkscape:current-layer="svg1" /><defs
     id="defs1">
	

		
	</defs><g
     id="layer1"
     style="fill:#00b8ea;fill-opacity:1"><g
       id="g1"
       transform="matrix(0.09947172,0,0,0.09947172,-0.27065463,-0.27065463)"
       style="fill:#00b8ea;fill-opacity:1"><path
         fill="#00618a"
         d="m 39.550949,33.92966 c -2.015653,-0.05492 -3.554929,0.132753 -4.870994,0.687549 -0.373878,0.157716 -0.970674,0.162123 -1.031762,0.630571 0.205589,0.215282 0.237601,0.537175 0.400898,0.802091 0.314257,0.508099 0.844677,1.190068 1.318119,1.547205 0.517498,0.390621 1.05056,0.807966 1.605065,1.146013 0.98624,0.601201 2.087316,0.944828 3.036844,1.547205 0.55979,0.355376 1.115761,0.802678 1.661748,1.203284 0.270203,0.198247 0.451414,0.506336 0.802384,0.63057 V 42.06717 C 42.288808,41.832213 42.24123,41.509732 42.07206,41.264493 l -0.745114,-0.745114 c -0.728373,-0.966856 -1.653231,-1.816232 -2.63624,-2.521403 -0.783882,-0.562728 -2.538145,-1.32282 -2.865031,-2.234753 l -0.05727,-0.05727 c 0.555678,-0.06285 1.206221,-0.263741 1.719311,-0.401486 0.861712,-0.230848 1.63179,-0.171226 2.521404,-0.400898 l 1.203284,-0.343922 V 34.330563 C 40.76275,33.869158 40.442032,33.258265 39.951848,32.840624 38.668385,31.748066 37.268029,30.656388 35.825967,29.745922 35.025933,29.241347 34.037637,28.913286 33.189728,28.485366 32.904547,28.341161 32.403497,28.266268 32.215236,28.026609 31.769695,27.459183 31.527394,26.739621 31.18406,26.078506 30.464792,24.693129 29.758446,23.180286 29.121121,21.722661 28.686446,20.728783 28.40244,19.749004 27.860272,18.857335 25.2581,14.579027 22.45739,11.997121 18.118579,9.4589768 17.19519,8.9191576 16.08354,8.7062262 14.908745,8.4272125 14.278762,8.3893264 13.64819,8.3508511 13.017913,8.3123768 12.632874,8.1520171 12.232857,7.6812186 11.8719,7.452721 10.434538,6.544604 6.7474451,4.5694807 5.6830806,7.1663646 5.0108045,8.8054975 6.6878237,10.404393 7.2872632,11.235267 c 0.4211639,0.582111 0.9601003,1.23559 1.2608478,1.890831 0.1979535,0.430857 0.2320216,0.862888 0.4014874,1.318414 0.4161703,1.122517 0.7788888,2.343716 1.3178266,3.380767 0.272258,0.525132 0.572418,1.077873 0.916928,1.547204 0.210874,0.288118 0.573005,0.414996 0.629983,0.859656 -0.353613,0.495176 -0.373879,1.264079 -0.572713,1.89142 -0.895781,2.823913 -0.557734,6.3342 0.745114,8.42416 0.39943,0.642026 1.341322,2.018003 2.635946,1.489934 1.132503,-0.461107 0.879627,-1.890832 1.203577,-3.151974 0.07313,-0.285769 0.02819,-0.496058 0.171814,-0.687549 v 0.05727 l 1.031764,2.062939 c 0.763616,1.229717 2.118156,2.51465 3.266518,3.381648 0.595327,0.449652 1.064069,1.22678 1.833853,1.489933 v -0.05756 h -0.05727 C 21.923736,34.900044 21.690246,34.803711 21.49993,34.616918 21.05145,34.17725 20.55275,33.630678 20.182102,33.126984 19.13771,31.709301 18.214908,30.157691 17.374049,28.54264 c -0.40178,-0.771546 -0.750988,-1.622098 -1.089328,-2.407154 -0.130402,-0.30251 -0.12864,-0.760386 -0.400605,-0.916928 -0.370942,0.575062 -0.916928,1.04028 -1.203577,1.719312 -0.458465,1.085511 -0.517498,2.409505 -0.687549,3.782254 -0.100446,0.03583 -0.0558,0.01116 -0.114837,0.05698 -0.798272,-0.192372 -1.078461,-1.013847 -1.375391,-1.719018 -0.750106,-1.782752 -0.889613,-4.652775 -0.229379,-6.704848 0.170934,-0.531302 0.942773,-2.203034 0.630279,-2.693805 -0.1492,-0.489304 -0.641439,-0.77243 -0.916635,-1.146308 -0.340981,-0.462284 -0.681083,-1.070828 -0.917512,-1.604772 -0.61383,-1.389488 -0.900479,-2.94991 -1.5469099,-4.354965 C 9.2133396,11.881697 8.6908493,11.201785 8.2617558,10.604989 7.7868448,9.9432855 7.2546631,9.4560397 6.8863636,8.6562975 6.7553758,8.3719981 6.5776876,7.9167641 6.7715281,7.6245345 6.8332017,7.427463 6.920727,7.345227 7.1154492,7.2809065 c 0.332467,-0.256399 1.2582061,0.085172 1.6041826,0.2287913 0.9189836,0.3818083 1.6861242,0.7454076 2.4647212,1.2611427 0.373289,0.2478819 0.751574,0.7269038 1.203283,0.859656 h 0.515735 c 0.80679,0.1853235 1.710502,0.057271 2.464426,0.2863563 1.332217,0.4047162 2.526102,1.0347012 3.610144,1.7193122 3.302936,2.085848 6.003789,5.054554 7.851155,8.596267 0.297222,0.570364 0.425862,1.114294 0.687548,1.719312 0.52807,1.219732 1.193298,2.474707 1.718726,3.66771 0.524545,1.190068 1.035581,2.391002 1.776876,3.381354 0.389739,0.520434 1.894651,0.799742 2.578968,1.089035 0.479316,0.202358 1.26496,0.413822 1.719314,0.687255 0.867291,0.523371 1.707858,1.146305 2.521696,1.719606 0.406186,0.286357 1.656461,0.915166 1.718725,1.432956 z M 13.934841,12.095804 c -0.420284,-0.0079 -0.717507,0.04582 -1.031764,0.114248 v 0.05727 h 0.05727 c 0.200596,0.411766 0.554504,0.67727 0.802091,1.031764 0.190905,0.401486 0.382102,0.802385 0.5733,1.203283 l 0.05698,-0.05669 c 0.355081,-0.250524 0.517496,-0.650248 0.515439,-1.261141 -0.14215,-0.149493 -0.163001,-0.336872 -0.286355,-0.515442 -0.163297,-0.238189 -0.480198,-0.373584 -0.686961,-0.573299 z"
         id="path1"
         style="stroke-width:0.293698;fill:#00b8ea;fill-opacity:1" /></g></g><style
     type="text/css"
     id="style1">
	.st0{fill:#6DB33F;}
</style></svg>
