<?xml version="1.0" encoding="UTF-8" standalone="no"?>
<!-- Created with Inkscape (http://www.inkscape.org/) -->

<svg
   width="16"
   height="16"
   viewBox="0 0 4.2333333 4.2333333"
   version="1.1"
   id="svg1"
   inkscape:version="1.3.2 (091e20e, 2023-11-25)"
   sodipodi:docname="spring-boot.svg"
   xml:space="preserve"
   xmlns:inkscape="http://www.inkscape.org/namespaces/inkscape"
   xmlns:sodipodi="http://sodipodi.sourceforge.net/DTD/sodipodi-0.dtd"
   xmlns="http://www.w3.org/2000/svg"
   xmlns:svg="http://www.w3.org/2000/svg"><sodipodi:namedview
     id="namedview1"
     pagecolor="#ffffff"
     bordercolor="#cccccc"
     borderopacity="1"
     inkscape:showpageshadow="0"
     inkscape:pageopacity="1"
     inkscape:pagecheckerboard="0"
     inkscape:deskcolor="#ffffff"
     inkscape:document-units="px"
     inkscape:zoom="14.80746"
     inkscape:cx="12.696303"
     inkscape:cy="13.641772"
     inkscape:window-width="1440"
     inkscape:window-height="847"
     inkscape:window-x="0"
     inkscape:window-y="25"
     inkscape:window-maximized="1"
     inkscape:current-layer="layer1" /><defs
     id="defs1">
	

		
	</defs><g
     inkscape:label="Layer 1"
     inkscape:groupmode="layer"
     id="layer1"><path
       class="st0"
       d="M 4.058782,1.9017013 3.2731809,0.54233789 C 3.2051737,0.42430224 3.0378915,0.32737246 2.9010953,0.32737246 H 1.3314567 c -0.1360146,0 -0.3040784,0.0969294 -0.37208567,0.21496543 L 0.17455169,1.9017013 c -0.0680072,0.1180355 -0.0680072,0.3111136 0,0.4291492 L 0.95937103,3.6909956 C 1.0273788,3.8090311 1.1946604,3.9059609 1.3314567,3.9059609 h 1.5704202 c 0.1360146,0 0.3032968,-0.096929 0.3720857,-0.2149653 L 4.058782,2.3308505 c 0.068007,-0.1180356 0.068007,-0.3111137 0,-0.4291492 z M 1.9466487,1.0793606 c 0,-0.0891126 0.072698,-0.16181026 0.1618104,-0.16181026 0.089113,0 0.1618103,0.0726976 0.1618103,0.16181026 v 0.9669538 c 0,0.089113 -0.072698,0.1618103 -0.1618103,0.1618103 -0.089113,0 -0.1618104,-0.072698 -0.1618104,-0.1618103 v 0 z m 0.1618104,2.0644501 c -0.6050301,0 -1.0974964,-0.4924663 -1.0974964,-1.0974963 7.805e-4,-0.3470715 0.1649371,-0.6730373 0.4432197,-0.8809675 0.064098,-0.047683 0.1539934,-0.034394 0.2016767,0.029704 0.047683,0.064098 0.034394,0.1539935 -0.029704,0.2016767 v 0 C 1.2673579,1.663285 1.1923154,2.1706035 1.4588725,2.5294004 1.7254297,2.8881972 2.2327482,2.9632398 2.5915451,2.6966826 2.7971302,2.5442525 2.9182925,2.3027095 2.9182925,2.0463144 2.9175108,1.7891375 2.7955668,1.5475945 2.5884183,1.3943828 2.5243195,1.3474812 2.5110307,1.2568048 2.5579323,1.1927061 c 0.046902,-0.064099 0.1375779,-0.077388 0.2016766,-0.030486 0.2806277,0.2071486 0.4455648,0.5354595 0.4463465,0.8840944 0,0.6058117 -0.4924663,1.0974963 -1.0974963,1.0974962 z"
       id="path1"
       style="stroke-width:0.00781691" /></g><style
     type="text/css"
     id="style1">
	.st0{fill:#6DB33F;}
</style></svg>
